# This file is brought to you by Roblox Corporation
# Generated by Roblox Studio

mtllib TutorialHall.mtl

g Union281

v 128 15 -180 
v 128 13 -210 
v 128 15 -210 
v 128 13 -180 
v 118 13 -195 
v 118 11 -210 
v 118 13 -210 
v 118 11 -195 
v 118 17 -180 
v 118 15 -195 
v 118 17 -195 
v 118 15 -180 
v 115 11 -210 
v 115 11 -195 
v 115 9 -210 
v 115 9 -195 
v 115 17 -180 
v 115 17 -195 
v 115 19 -180 
v 115 19 -195 
v 112 9 -195 
v 112 7 -210 
v 112 9 -210 
v 112 7 -195 
v 112 21 -180 
v 112 19 -195 
v 112 21 -195 
v 112 19 -180 
v 109 7 -210 
v 109 7 -195 
v 109 5 -210 
v 109 5 -195 
v 109 21 -180 
v 109 21 -195 
v 109 23 -180 
v 109 23 -195 
v 106 5 -195 
v 106 3 -210 
v 106 5 -210 
v 106 3 -195 
v 106 25 -180 
v 106 23 -180 
v 106 23 -195 
v 106 25 -195 
v 103 3 -210 
v 103 3 -195 
v 103 1 -210 
v 103 1 -195 
v 103 25 -180 
v 103 25 -195 
v 103 27 -180 
v 103 27 -195 
v 100 27 -180 
v 103 27 -180 
v 100 27 -195 
v 103 27 -195 
v 103 25 -195 
v 106 25 -180 
v 106 25 -195 
v 103 25 -180 
v 109 23 -180 
v 109 23 -195 
v 106 23 -195 
v 106 23 -180 
v 109 21 -195 
v 112 21 -180 
v 112 21 -195 
v 109 21 -180 
v 115 19 -180 
v 112 19 -195 
v 112 19 -180 
v 115 19 -195 
v 115 17 -180 
v 118 17 -180 
v 115 17 -195 
v 118 17 -195 
v 128 15 -180 
v 118 15 -210 
v 118 15 -180 
v 128 15 -210 
v 115 13 -210 
v 118 13 -195 
v 118 13 -210 
v 115 13 -195 
v 112 11 -210 
v 115 11 -195 
v 115 11 -210 
v 112 11 -195 
v 112 9 -195 
v 109 9 -210 
v 109 9 -195 
v 112 9 -210 
v 106 7 -210 
v 109 7 -195 
v 109 7 -210 
v 106 7 -195 
v 106 5 -195 
v 103 5 -210 
v 103 5 -195 
v 106 5 -210 
v 100 3 -195 
v 103 3 -195 
v 100 3 -210 
v 103 3 -210 
v 118 15 -180 
v 128 13 -180 
v 128 15 -180 
v 118 13 -180 
v 118 17 -180 
v 115 17 -180 
v 115 15 -180 
v 115 19 -180 
v 112 19 -180 
v 112 17 -180 
v 109 19 -180 
v 109 21 -180 
v 112 21 -180 
v 106 21 -180 
v 106 23 -180 
v 109 23 -180 
v 106 25 -180 
v 103 25 -180 
v 103 23 -180 
v 103 27 -180 
v 100 27 -180 
v 100 25 -180 
v 103 1 -195 
v 100 3 -195 
v 100 1 -195 
v 103 3 -195 
v 106 3 -195 
v 103 5 -195 
v 106 5 -195 
v 109 5 -195 
v 106 7 -195 
v 109 7 -195 
v 112 7 -195 
v 109 9 -195 
v 112 9 -195 
v 115 9 -195 
v 112 11 -195 
v 115 11 -195 
v 118 11 -195 
v 115 13 -195 
v 118 13 -195 
v 100 3 -195 
v 100 3 -210 
v 100 1 -195 
v 100 1 -210 
v 100 27 -180 
v 100 27 -195 
v 100 25 -180 
v 100 25 -195 
v 103 3 -195 
v 103 5 -210 
v 103 3 -210 
v 103 5 -195 
v 103 23 -180 
v 103 25 -195 
v 103 23 -195 
v 103 25 -180 
v 106 7 -195 
v 106 7 -210 
v 106 5 -195 
v 106 5 -210 
v 106 23 -180 
v 106 23 -195 
v 106 21 -180 
v 106 21 -195 
v 109 9 -210 
v 109 7 -195 
v 109 9 -195 
v 109 7 -210 
v 109 19 -180 
v 109 21 -195 
v 109 19 -195 
v 109 21 -180 
v 112 9 -210 
v 112 9 -195 
v 112 11 -210 
v 112 11 -195 
v 112 19 -180 
v 112 19 -195 
v 112 17 -180 
v 112 17 -195 
v 115 11 -195 
v 115 13 -210 
v 115 11 -210 
v 115 13 -195 
v 115 15 -180 
v 115 17 -195 
v 115 15 -195 
v 115 17 -180 
v 118 15 -210 
v 118 13 -180 
v 118 15 -180 
v 118 13 -210 
v 103 1 -210 
v 103 1 -195 
v 100 1 -195 
v 100 1 -210 
v 103 3 -195 
v 106 3 -210 
v 106 3 -195 
v 103 3 -210 
v 109 5 -210 
v 106 5 -195 
v 106 5 -210 
v 109 5 -195 
v 109 7 -195 
v 112 7 -210 
v 112 7 -195 
v 109 7 -210 
v 115 9 -210 
v 115 9 -195 
v 112 9 -195 
v 112 9 -210 
v 118 11 -210 
v 115 11 -195 
v 115 11 -210 
v 118 11 -195 
v 128 13 -210 
v 128 13 -180 
v 118 13 -180 
v 118 13 -210 
v 118 15 -195 
v 115 15 -180 
v 115 15 -195 
v 118 15 -180 
v 112 17 -180 
v 115 17 -195 
v 115 17 -180 
v 112 17 -195 
v 112 19 -180 
v 109 19 -180 
v 112 19 -195 
v 109 19 -195 
v 109 21 -195 
v 106 21 -180 
v 106 21 -195 
v 109 21 -180 
v 106 23 -195 
v 103 23 -180 
v 103 23 -195 
v 106 23 -180 
v 100 25 -180 
v 103 25 -195 
v 103 25 -180 
v 100 25 -195 
v 100 3 -210 
v 103 3 -210 
v 100 1 -210 
v 103 1 -210 
v 106 3 -210 
v 106 5 -210 
v 103 5 -210 
v 106 7 -210 
v 109 7 -210 
v 109 5 -210 
v 109 9 -210 
v 112 9 -210 
v 112 7 -210 
v 115 11 -210 
v 112 11 -210 
v 115 9 -210 
v 118 11 -210 
v 118 13 -210 
v 115 13 -210 
v 128 15 -210 
v 118 15 -210 
v 128 13 -210 
v 115 17 -195 
v 118 17 -195 
v 115 15 -195 
v 118 15 -195 
v 115 19 -195 
v 112 17 -195 
v 112 19 -195 
v 109 19 -195 
v 112 21 -195 
v 109 21 -195 
v 109 23 -195 
v 106 21 -195 
v 106 23 -195 
v 103 23 -195 
v 106 25 -195 
v 103 25 -195 
v 103 27 -195 
v 100 25 -195 
v 100 27 -195 

vn 1 0 0 
vn 1 0 0 
vn 1 0 0 
vn 1 0 0 
vn 1 0 0 
vn 1 0 0 
vn 1 0 0 
vn 1 0 0 
vn 1 0 0 
vn 1 0 0 
vn 1 0 0 
vn 1 0 0 
vn 1 0 0 
vn 1 0 0 
vn 1 0 0 
vn 1 0 0 
vn 1 0 0 
vn 1 0 0 
vn 1 0 0 
vn 1 0 0 
vn 1 0 0 
vn 1 0 0 
vn 1 0 0 
vn 1 0 0 
vn 1 0 0 
vn 1 0 0 
vn 1 0 0 
vn 1 0 0 
vn 1 0 0 
vn 1 0 0 
vn 1 0 0 
vn 1 0 0 
vn 1 0 0 
vn 1 0 0 
vn 1 0 0 
vn 1 0 0 
vn 1 0 0 
vn 1 0 0 
vn 1 0 0 
vn 1 0 0 
vn 1 0 0 
vn 1 0 0 
vn 1 0 0 
vn 1 0 0 
vn 1 0 0 
vn 1 0 0 
vn 1 0 0 
vn 1 0 0 
vn 1 0 0 
vn 1 0 0 
vn 1 0 0 
vn 1 0 0 
vn 0 1 0 
vn 0 1 0 
vn 0 1 0 
vn 0 1 0 
vn 0 1 0 
vn 0 1 0 
vn 0 1 0 
vn 0 1 0 
vn 0 1 0 
vn 0 1 0 
vn 0 1 0 
vn 0 1 0 
vn 0 1 0 
vn 0 1 0 
vn 0 1 0 
vn 0 1 0 
vn 0 1 0 
vn 0 1 0 
vn 0 1 0 
vn 0 1 0 
vn 0 1 0 
vn 0 1 0 
vn 0 1 0 
vn 0 1 0 
vn 0 1 0 
vn 0 1 0 
vn 0 1 0 
vn 0 1 0 
vn 0 1 0 
vn 0 1 0 
vn 0 1 0 
vn 0 1 0 
vn 0 1 0 
vn 0 1 0 
vn 0 1 0 
vn 0 1 0 
vn 0 1 0 
vn 0 1 0 
vn 0 1 0 
vn 0 1 0 
vn 0 1 0 
vn 0 1 0 
vn 0 1 0 
vn 0 1 0 
vn 0 1 0 
vn 0 1 0 
vn 0 1 0 
vn 0 1 0 
vn 0 1 0 
vn 0 1 0 
vn 0 1 0 
vn 0 1 0 
vn 0 0 1 
vn 0 0 1 
vn 0 0 1 
vn 0 0 1 
vn 0 0 1 
vn 0 0 1 
vn 0 0 1 
vn 0 0 1 
vn 0 0 1 
vn 0 0 1 
vn 0 0 1 
vn 0 0 1 
vn 0 0 1 
vn 0 0 1 
vn 0 0 1 
vn 0 0 1 
vn 0 0 1 
vn 0 0 1 
vn 0 0 1 
vn 0 0 1 
vn 0 0 1 
vn 0 0 1 
vn 0 0 1 
vn 0 0 1 
vn 0 0 1 
vn 0 0 1 
vn 0 0 1 
vn 0 0 1 
vn 0 0 1 
vn 0 0 1 
vn 0 0 1 
vn 0 0 1 
vn 0 0 1 
vn 0 0 1 
vn 0 0 1 
vn 0 0 1 
vn 0 0 1 
vn 0 0 1 
vn 0 0 1 
vn 0 0 1 
vn 0 0 1 
vn -1 0 0 
vn -1 0 0 
vn -1 0 0 
vn -1 0 0 
vn -1 0 0 
vn -1 0 0 
vn -1 0 0 
vn -1 0 0 
vn -1 0 0 
vn -1 0 0 
vn -1 0 0 
vn -1 0 0 
vn -1 0 0 
vn -1 0 0 
vn -1 0 0 
vn -1 0 0 
vn -1 0 0 
vn -1 0 0 
vn -1 0 0 
vn -1 0 0 
vn -1 0 0 
vn -1 0 0 
vn -1 0 0 
vn -1 0 0 
vn -1 0 0 
vn -1 0 0 
vn -1 0 0 
vn -1 0 0 
vn -1 0 0 
vn -1 0 0 
vn -1 0 0 
vn -1 0 0 
vn -1 0 0 
vn -1 0 0 
vn -1 0 0 
vn -1 0 0 
vn -1 0 0 
vn -1 0 0 
vn -1 0 0 
vn -1 0 0 
vn -1 0 0 
vn -1 0 0 
vn -1 0 0 
vn -1 0 0 
vn -1 0 0 
vn -1 0 0 
vn -1 0 0 
vn -1 0 0 
vn -1 0 0 
vn -1 0 0 
vn -1 0 0 
vn -1 0 0 
vn 0 -1 0 
vn 0 -1 0 
vn 0 -1 0 
vn 0 -1 0 
vn 0 -1 0 
vn 0 -1 0 
vn 0 -1 0 
vn 0 -1 0 
vn 0 -1 0 
vn 0 -1 0 
vn 0 -1 0 
vn 0 -1 0 
vn 0 -1 0 
vn 0 -1 0 
vn 0 -1 0 
vn 0 -1 0 
vn 0 -1 0 
vn 0 -1 0 
vn 0 -1 0 
vn 0 -1 0 
vn 0 -1 0 
vn 0 -1 0 
vn 0 -1 0 
vn 0 -1 0 
vn 0 -1 0 
vn 0 -1 0 
vn 0 -1 0 
vn 0 -1 0 
vn 0 -1 0 
vn 0 -1 0 
vn 0 -1 0 
vn 0 -1 0 
vn 0 -1 0 
vn 0 -1 0 
vn 0 -1 0 
vn 0 -1 0 
vn 0 -1 0 
vn 0 -1 0 
vn 0 -1 0 
vn 0 -1 0 
vn 0 -1 0 
vn 0 -1 0 
vn 0 -1 0 
vn 0 -1 0 
vn 0 -1 0 
vn 0 -1 0 
vn 0 -1 0 
vn 0 -1 0 
vn 0 -1 0 
vn 0 -1 0 
vn 0 -1 0 
vn 0 -1 0 
vn 0 0 -1 
vn 0 0 -1 
vn 0 0 -1 
vn 0 0 -1 
vn 0 0 -1 
vn 0 0 -1 
vn 0 0 -1 
vn 0 0 -1 
vn 0 0 -1 
vn 0 0 -1 
vn 0 0 -1 
vn 0 0 -1 
vn 0 0 -1 
vn 0 0 -1 
vn 0 0 -1 
vn 0 0 -1 
vn 0 0 -1 
vn 0 0 -1 
vn 0 0 -1 
vn 0 0 -1 
vn 0 0 -1 
vn 0 0 -1 
vn 0 0 -1 
vn 0 0 -1 
vn 0 0 -1 
vn 0 0 -1 
vn 0 0 -1 
vn 0 0 -1 
vn 0 0 -1 
vn 0 0 -1 
vn 0 0 -1 
vn 0 0 -1 
vn 0 0 -1 
vn 0 0 -1 
vn 0 0 -1 
vn 0 0 -1 
vn 0 0 -1 
vn 0 0 -1 
vn 0 0 -1 
vn 0 0 -1 
vn 0 0 -1 

vt 48.125 -30.875 
vt 51.875 -31.125 
vt 51.875 -30.875 
vt 48.125 -31.125 
vt 50 -31.125 
vt 51.875 -31.375 
vt 51.875 -31.125 
vt 50 -31.375 
vt 48.125 -30.625 
vt 50 -30.875 
vt 50 -30.625 
vt 48.125 -30.875 
vt 51.875 -31.375 
vt 50 -31.375 
vt 51.875 -31.625 
vt 50 -31.625 
vt 48.125 -30.625 
vt 50 -30.625 
vt 48.125 -30.375 
vt 50 -30.375 
vt 50 -31.625 
vt 51.875 -31.875 
vt 51.875 -31.625 
vt 50 -31.875 
vt 48.125 -30.125 
vt 50 -30.375 
vt 50 -30.125 
vt 48.125 -30.375 
vt 51.875 -31.875 
vt 50 -31.875 
vt 51.875 -32.125 
vt 50 -32.125 
vt 48.125 -30.125 
vt 50 -30.125 
vt 48.125 -29.875 
vt 50 -29.875 
vt 50 -32.125 
vt 51.875 -32.375 
vt 51.875 -32.125 
vt 50 -32.375 
vt 48.125 -29.625 
vt 48.125 -29.875 
vt 50 -29.875 
vt 50 -29.625 
vt 51.875 -32.375 
vt 50 -32.375 
vt 51.875 -32.625 
vt 50 -32.625 
vt 48.125 -29.625 
vt 50 -29.625 
vt 48.125 -29.375 
vt 50 -29.375 
vt 51.75 -29.125 
vt 51.375 -29.125 
vt 51.75 -31 
vt 51.375 -31 
vt 51.375 -31 
vt 51 -29.125 
vt 51 -31 
vt 51.375 -29.125 
vt 50.625 -29.125 
vt 50.625 -31 
vt 51 -31 
vt 51 -29.125 
vt 50.625 -31 
vt 50.25 -29.125 
vt 50.25 -31 
vt 50.625 -29.125 
vt 49.875 -29.125 
vt 50.25 -31 
vt 50.25 -29.125 
vt 49.875 -31 
vt 49.875 -29.125 
vt 49.5 -29.125 
vt 49.875 -31 
vt 49.5 -31 
vt 48.25 -29.125 
vt 49.5 -32.875 
vt 49.5 -29.125 
vt 48.25 -32.875 
vt 49.875 -32.875 
vt 49.5 -31 
vt 49.5 -32.875 
vt 49.875 -31 
vt 50.25 -32.875 
vt 49.875 -31 
vt 49.875 -32.875 
vt 50.25 -31 
vt 50.25 -31 
vt 50.625 -32.875 
vt 50.625 -31 
vt 50.25 -32.875 
vt 51 -32.875 
vt 50.625 -31 
vt 50.625 -32.875 
vt 51 -31 
vt 51 -31 
vt 51.375 -32.875 
vt 51.375 -31 
vt 51 -32.875 
vt 51.75 -31 
vt 51.375 -31 
vt 51.75 -32.875 
vt 51.375 -32.875 
vt 50.5 -30.875 
vt 51.75 -31.125 
vt 51.75 -30.875 
vt 50.5 -31.125 
vt 50.5 -30.625 
vt 50.125 -30.625 
vt 50.125 -30.875 
vt 50.125 -30.375 
vt 49.75 -30.375 
vt 49.75 -30.625 
vt 49.375 -30.375 
vt 49.375 -30.125 
vt 49.75 -30.125 
vt 49 -30.125 
vt 49 -29.875 
vt 49.375 -29.875 
vt 49 -29.625 
vt 48.625 -29.625 
vt 48.625 -29.875 
vt 48.625 -29.375 
vt 48.25 -29.375 
vt 48.25 -29.625 
vt 48.625 -32.625 
vt 48.25 -32.375 
vt 48.25 -32.625 
vt 48.625 -32.375 
vt 49 -32.375 
vt 48.625 -32.125 
vt 49 -32.125 
vt 49.375 -32.125 
vt 49 -31.875 
vt 49.375 -31.875 
vt 49.75 -31.875 
vt 49.375 -31.625 
vt 49.75 -31.625 
vt 50.125 -31.625 
vt 49.75 -31.375 
vt 50.125 -31.375 
vt 50.5 -31.375 
vt 50.125 -31.125 
vt 50.5 -31.125 
vt 50 -32.375 
vt 48.125 -32.375 
vt 50 -32.625 
vt 48.125 -32.625 
vt 51.875 -29.375 
vt 50 -29.375 
vt 51.875 -29.625 
vt 50 -29.625 
vt 50 -32.375 
vt 48.125 -32.125 
vt 48.125 -32.375 
vt 50 -32.125 
vt 51.875 -29.875 
vt 50 -29.625 
vt 50 -29.875 
vt 51.875 -29.625 
vt 50 -31.875 
vt 48.125 -31.875 
vt 50 -32.125 
vt 48.125 -32.125 
vt 51.875 -29.875 
vt 50 -29.875 
vt 51.875 -30.125 
vt 50 -30.125 
vt 48.125 -31.625 
vt 50 -31.875 
vt 50 -31.625 
vt 48.125 -31.875 
vt 51.875 -30.375 
vt 50 -30.125 
vt 50 -30.375 
vt 51.875 -30.125 
vt 48.125 -31.625 
vt 50 -31.625 
vt 48.125 -31.375 
vt 50 -31.375 
vt 51.875 -30.375 
vt 50 -30.375 
vt 51.875 -30.625 
vt 50 -30.625 
vt 50 -31.375 
vt 48.125 -31.125 
vt 48.125 -31.375 
vt 50 -31.125 
vt 51.875 -30.875 
vt 50 -30.625 
vt 50 -30.875 
vt 51.875 -30.625 
vt 48.125 -30.875 
vt 51.875 -31.125 
vt 51.875 -30.875 
vt 48.125 -31.125 
vt 48.625 -32.875 
vt 48.625 -31 
vt 48.25 -31 
vt 48.25 -32.875 
vt 48.625 -31 
vt 49 -32.875 
vt 49 -31 
vt 48.625 -32.875 
vt 49.375 -32.875 
vt 49 -31 
vt 49 -32.875 
vt 49.375 -31 
vt 49.375 -31 
vt 49.75 -32.875 
vt 49.75 -31 
vt 49.375 -32.875 
vt 50.125 -32.875 
vt 50.125 -31 
vt 49.75 -31 
vt 49.75 -32.875 
vt 50.5 -32.875 
vt 50.125 -31 
vt 50.125 -32.875 
vt 50.5 -31 
vt 51.75 -32.875 
vt 51.75 -29.125 
vt 50.5 -29.125 
vt 50.5 -32.875 
vt 50.5 -31 
vt 50.125 -29.125 
vt 50.125 -31 
vt 50.5 -29.125 
vt 49.75 -29.125 
vt 50.125 -31 
vt 50.125 -29.125 
vt 49.75 -31 
vt 49.75 -29.125 
vt 49.375 -29.125 
vt 49.75 -31 
vt 49.375 -31 
vt 49.375 -31 
vt 49 -29.125 
vt 49 -31 
vt 49.375 -29.125 
vt 49 -31 
vt 48.625 -29.125 
vt 48.625 -31 
vt 49 -29.125 
vt 48.25 -29.125 
vt 48.625 -31 
vt 48.625 -29.125 
vt 48.25 -31 
vt 51.75 -32.375 
vt 51.375 -32.375 
vt 51.75 -32.625 
vt 51.375 -32.625 
vt 51 -32.375 
vt 51 -32.125 
vt 51.375 -32.125 
vt 51 -31.875 
vt 50.625 -31.875 
vt 50.625 -32.125 
vt 50.625 -31.625 
vt 50.25 -31.625 
vt 50.25 -31.875 
vt 49.875 -31.375 
vt 50.25 -31.375 
vt 49.875 -31.625 
vt 49.5 -31.375 
vt 49.5 -31.125 
vt 49.875 -31.125 
vt 48.25 -30.875 
vt 49.5 -30.875 
vt 48.25 -31.125 
vt 49.875 -30.625 
vt 49.5 -30.625 
vt 49.875 -30.875 
vt 49.5 -30.875 
vt 49.875 -30.375 
vt 50.25 -30.625 
vt 50.25 -30.375 
vt 50.625 -30.375 
vt 50.25 -30.125 
vt 50.625 -30.125 
vt 50.625 -29.875 
vt 51 -30.125 
vt 51 -29.875 
vt 51.375 -29.875 
vt 51 -29.625 
vt 51.375 -29.625 
vt 51.375 -29.375 
vt 51.75 -29.625 
vt 51.75 -29.375 

usemtl Union281Mtl

f 1/1/1 2/2/2 3/3/3 
f 2/2/2 1/1/1 4/4/4 
f 5/5/5 6/6/6 7/7/7 
f 6/6/6 5/5/5 8/8/8 
f 9/9/9 10/10/10 11/11/11 
f 9/9/9 12/12/12 10/10/10 
f 13/13/13 14/14/14 15/15/15 
f 16/16/16 15/15/15 14/14/14 
f 17/17/17 18/18/18 19/19/19 
f 19/19/19 18/18/18 20/20/20 
f 21/21/21 22/22/22 23/23/23 
f 22/22/22 21/21/21 24/24/24 
f 25/25/25 26/26/26 27/27/27 
f 25/25/25 28/28/28 26/26/26 
f 29/29/29 30/30/30 31/31/31 
f 30/30/30 32/32/32 31/31/31 
f 33/33/33 34/34/34 35/35/35 
f 35/35/35 34/34/34 36/36/36 
f 37/37/37 38/38/38 39/39/39 
f 38/38/38 37/37/37 40/40/40 
f 41/41/41 42/42/42 43/43/43 
f 41/41/41 43/43/43 44/44/44 
f 45/45/45 46/46/46 47/47/47 
f 46/46/46 48/48/48 47/47/47 
f 49/49/49 50/50/50 51/51/51 
f 51/51/51 50/50/50 52/52/52 
f 53/53/53 54/54/54 55/55/55 
f 55/55/55 54/54/54 56/56/56 
f 57/57/57 58/58/58 59/59/59 
f 60/60/60 58/58/58 57/57/57 
f 61/61/61 62/62/62 63/63/63 
f 61/61/61 63/63/63 64/64/64 
f 65/65/65 66/66/66 67/67/67 
f 68/68/68 66/66/66 65/65/65 
f 69/69/69 70/70/70 71/71/71 
f 70/70/70 69/69/69 72/72/72 
f 73/73/73 74/74/74 75/75/75 
f 75/75/75 74/74/74 76/76/76 
f 77/77/77 78/78/78 79/79/79 
f 78/78/78 77/77/77 80/80/80 
f 81/81/81 82/82/82 83/83/83 
f 82/82/82 81/81/81 84/84/84 
f 85/85/85 86/86/86 87/87/87 
f 88/88/88 86/86/86 85/85/85 
f 89/89/89 90/90/90 91/91/91 
f 92/92/92 90/90/90 89/89/89 
f 93/93/93 94/94/94 95/95/95 
f 96/96/96 94/94/94 93/93/93 
f 97/97/97 98/98/98 99/99/99 
f 98/98/98 97/97/97 100/100/100 
f 101/101/101 102/102/102 103/103/103 
f 103/103/103 102/102/102 104/104/104 
f 105/105/105 106/106/106 107/107/107 
f 106/106/106 105/105/105 108/108/108 
f 109/109/109 110/110/110 105/105/105 
f 111/111/111 105/105/105 110/110/110 
f 112/112/112 113/113/113 110/110/110 
f 114/114/114 110/110/110 113/113/113 
f 115/115/115 113/113/113 116/116/116 
f 117/117/117 116/116/116 113/113/113 
f 118/118/118 116/116/116 119/119/119 
f 120/120/120 119/119/119 116/116/116 
f 121/121/121 122/122/122 119/119/119 
f 123/123/123 119/119/119 122/122/122 
f 124/124/124 125/125/125 122/122/122 
f 122/122/122 125/125/125 126/126/126 
f 127/127/127 128/128/128 129/129/129 
f 130/130/130 128/128/128 127/127/127 
f 130/130/130 131/131/131 132/132/132 
f 133/133/133 132/132/132 131/131/131 
f 133/133/133 134/134/134 135/135/135 
f 136/136/136 135/135/135 134/134/134 
f 136/136/136 137/137/137 138/138/138 
f 139/139/139 138/138/138 137/137/137 
f 140/140/140 141/141/141 139/139/139 
f 142/142/142 141/141/141 140/140/140 
f 142/142/142 143/143/143 144/144/144 
f 145/145/145 144/144/144 143/143/143 
f 146/146/146 147/147/147 148/148/148 
f 149/149/149 148/148/148 147/147/147 
f 150/150/150 151/151/151 152/152/152 
f 153/153/153 152/152/152 151/151/151 
f 154/154/154 155/155/155 156/156/156 
f 155/155/155 154/154/154 157/157/157 
f 158/158/158 159/159/159 160/160/160 
f 158/158/158 161/161/161 159/159/159 
f 162/162/162 163/163/163 164/164/164 
f 165/165/165 164/164/164 163/163/163 
f 166/166/166 167/167/167 168/168/168 
f 169/169/169 168/168/168 167/167/167 
f 170/170/170 171/171/171 172/172/172 
f 171/171/171 170/170/170 173/173/173 
f 174/174/174 175/175/175 176/176/176 
f 174/174/174 177/177/177 175/175/175 
f 178/178/178 179/179/179 180/180/180 
f 181/181/181 180/180/180 179/179/179 
f 182/182/182 183/183/183 184/184/184 
f 185/185/185 184/184/184 183/183/183 
f 186/186/186 187/187/187 188/188/188 
f 187/187/187 186/186/186 189/189/189 
f 190/190/190 191/191/191 192/192/192 
f 190/190/190 193/193/193 191/191/191 
f 194/194/194 195/195/195 196/196/196 
f 197/197/197 195/195/195 194/194/194 
f 198/198/198 199/199/199 200/200/200 
f 198/198/198 200/200/200 201/201/201 
f 202/202/202 203/203/203 204/204/204 
f 203/203/203 202/202/202 205/205/205 
f 206/206/206 207/207/207 208/208/208 
f 206/206/206 209/209/209 207/207/207 
f 210/210/210 211/211/211 212/212/212 
f 213/213/213 211/211/211 210/210/210 
f 214/214/214 215/215/215 216/216/216 
f 214/214/214 216/216/216 217/217/217 
f 218/218/218 219/219/219 220/220/220 
f 219/219/219 218/218/218 221/221/221 
f 222/222/222 223/223/223 224/224/224 
f 222/222/222 224/224/224 225/225/225 
f 226/226/226 227/227/227 228/228/228 
f 227/227/227 226/226/226 229/229/229 
f 230/230/230 231/231/231 232/232/232 
f 231/231/231 230/230/230 233/233/233 
f 234/234/234 235/235/235 236/236/236 
f 236/236/236 235/235/235 237/237/237 
f 238/238/238 239/239/239 240/240/240 
f 239/239/239 238/238/238 241/241/241 
f 242/242/242 243/243/243 244/244/244 
f 243/243/243 242/242/242 245/245/245 
f 246/246/246 247/247/247 248/248/248 
f 247/247/247 246/246/246 249/249/249 
f 250/250/250 251/251/251 252/252/252 
f 251/251/251 253/253/253 252/252/252 
f 254/254/254 251/251/251 255/255/255 
f 256/256/256 255/255/255 251/251/251 
f 257/257/257 258/258/258 255/255/255 
f 258/258/258 259/259/259 255/255/255 
f 260/260/260 261/261/261 258/258/258 
f 262/262/262 258/258/258 261/261/261 
f 263/263/263 261/261/261 264/264/264 
f 263/263/263 265/265/265 261/261/261 
f 266/266/266 263/263/263 267/267/267 
f 268/268/268 267/267/267 263/263/263 
f 269/269/269 267/267/267 270/270/270 
f 267/267/267 269/269/269 271/271/271 
f 272/272/272 273/273/273 274/274/274 
f 275/275/275 274/274/274 273/273/273 
f 276/276/276 272/272/272 277/277/277 
f 278/278/278 276/276/276 277/277/277 
f 278/278/278 279/279/279 280/280/280 
f 281/281/281 280/280/280 279/279/279 
f 282/282/282 281/281/281 283/283/283 
f 284/284/284 282/282/282 283/283/283 
f 284/284/284 285/285/285 286/286/286 
f 287/287/287 286/286/286 285/285/285 
f 288/288/288 287/287/287 289/289/289 
f 290/290/290 288/288/288 289/289/289 

g Union271

v -41 -0.000488281 -181.002 
v -41 -0.000488281 -164.002 
v -26 38.9995 -165.002 
v 129 -0.000490189 -180.002 
v 129 24.9995 -179.002 
v 129 -0.000490189 -179.002 
v 129 24.9995 -180.002 
v 129 -0.000490189 -211.002 
v 129 24.9995 -211.002 
v 109 -0.000490189 -150.002 
v 109 24.9995 -138.002 
v 109 -0.000490189 -138.002 
v 109 24.9995 -150.002 
v 79 -0.000490189 -211.002 
v 79 -0.000490189 -122.002 
v 101 24.9995 -122.002 
v 101 -0.000490189 -138.002 
v 101 24.9995 -122.002 
v 101 -0.000490189 -122.002 
v 101 24.9995 -138.002 
v 101 24.9995 -150.002 
v 101 -0.000490189 -179.002 
v 101 24.9995 -179.002 
v 101 -0.000490189 -150.002 
v -40 39.9995 -180.002 
v -25 39.9995 -181.002 
v -25 39.9995 -165.002 
v -40 39.9995 -165.002 
v 80 24.9995 -180.002 
v 80 -0.000490189 -210.002 
v 80 24.9995 -210.002 
v 80 -0.000490189 -180.002 
v 80 24.9995 -164.002 
v 80 -0.000490189 -165.002 
v 80 24.9995 -165.002 
v 80 -0.000490189 -164.002 
v 80 24.9995 -123.002 
v 80 -0.000490189 -123.002 
v 128 -0.000490189 -210.002 
v -25 -0.000490189 -180.002 
v 100 -0.000490189 -123.002 
v 100 24.9995 -180.002 
v -25 24.9995 -180.002 
v 128 24.9995 -180.002 
v 79 24.9995 -164.002 
v -25 24.9995 -165.002 
v -25 39.9995 -180.002 
v -25 24.9995 -181.002 
v -25 39.9995 -181.002 
v -25 24.9995 -180.002 
v -25 39.9995 -165.002 
v -25 23.9995 -180.002 
v -25 24.9995 -165.002 
v -25 23.9995 -165.002 
v -25 39.9995 -164.002 
v -25 24.9995 -164.002 
v -40 -0.000488281 -180.002 
v -40 38.9995 -165.002 
v -40 -0.000488281 -165.002 
v -40 38.9995 -180.002 
v 101 -0.000490189 -138.002 
v 101 -0.000490189 -179.002 
v -40 39.9995 -180.002 
v -25 39.9995 -180.002 
v -25 39.9995 -181.002 
v -25 39.9995 -165.002 
v -41 39.9995 -181.002 
v -40 39.9995 -165.002 
v -25 39.9995 -164.002 
v -41 39.9995 -164.002 
v 128 -0.000490189 -210.002 
v 80 24.9995 -210.002 
v 128 24.9995 -210.002 
v 79 24.9995 -211.002 
v 80 24.9995 -180.002 
v 129 24.9995 -211.002 
v 79 24.9995 -181.002 
v -25 24.9995 -181.002 
v -25 24.9995 -180.002 
v 129 24.9995 -180.002 
v 128 24.9995 -180.002 
v 100 24.9995 -180.002 
v 129 24.9995 -179.002 
v 101 24.9995 -179.002 
v 101 24.9995 -150.002 
v 100 24.9995 -149.002 
v 108 24.9995 -149.002 
v 109 24.9995 -150.002 
v 109 24.9995 -138.002 
v 108 24.9995 -139.002 
v 101 24.9995 -138.002 
v 100 24.9995 -139.002 
v 101 24.9995 -122.002 
v 100 24.9995 -123.002 
v 79 24.9995 -122.002 
v 80 24.9995 -123.002 
v 79 24.9995 -164.002 
v 80 24.9995 -164.002 
v 80 24.9995 -165.002 
v -25 24.9995 -165.002 
v -25 24.9995 -164.002 
v -41 -0.000488281 -181.002 
v -41 -0.000488281 -164.002 
v -26 38.9995 -165.002 
v -26 38.9995 -180.002 
v 129 -0.000490189 -180.002 
v 129 24.9995 -180.002 
v 129 24.9995 -211.002 
v 79 -0.000490189 -211.002 
v 79 -0.000490189 -122.002 
v 101 -0.000490189 -122.002 
v 79 24.9995 -122.002 
v 101 24.9995 -122.002 
v 101 -0.000490189 -138.002 
v 101 24.9995 -138.002 
v 101 -0.000490189 -179.002 
v 101 -0.000490189 -138.002 
v 109 -0.000490189 -138.002 
v 101 24.9995 -138.002 
v 109 24.9995 -138.002 
v -40 39.9995 -180.002 
v -25 39.9995 -181.002 
v -25 39.9995 -165.002 
v -40 39.9995 -165.002 
v 80 24.9995 -180.002 
v 80 24.9995 -210.002 
v 80 -0.000490189 -180.002 
v 80 -0.000490189 -165.002 
v 80 24.9995 -165.002 
v 80 -0.000490189 -164.002 
v 80 24.9995 -123.002 
v 100 -0.000490189 -149.002 
v 108 -0.000490189 -149.002 
v 100 24.9995 -149.002 
v 108 24.9995 -149.002 
v 128 -0.000490189 -210.002 
v -25 -0.000490189 -180.002 
v -40 -0.000488281 -180.002 
v -40 -0.000488281 -165.002 
v 100 -0.000490189 -123.002 
v 100 24.9995 -180.002 
v -25 24.9995 -180.002 
v 79 24.9995 -164.002 
v -25 24.9995 -165.002 
v -41 39.9995 -164.002 
v -41 -0.000488281 -164.002 
v -25 24.9995 -164.002 
v -25 39.9995 -164.002 
v 80 -0.000490189 -164.002 
v 80 24.9995 -164.002 
v 101 -0.000490189 -179.002 
v 129 24.9995 -179.002 
v 101 24.9995 -179.002 
v 129 -0.000490189 -179.002 
v 80 -0.000490189 -180.002 
v -25 24.9995 -180.002 
v -25 23.9995 -180.002 
v 80 24.9995 -180.002 
v -25 -0.000490189 -180.002 
v -26 23.9995 -180.002 
v -40 38.9995 -180.002 
v -40 -0.000488281 -180.002 
v -26 38.9995 -180.002 
v 129 -0.000490189 -180.002 
v 128 24.9995 -180.002 
v 128 -0.000490189 -180.002 
v 129 24.9995 -180.002 
v 80 24.9995 -210.002 
v 128 -0.000490189 -210.002 
v 128 24.9995 -210.002 
v 80 -0.000490189 -210.002 
v -41 -0.000488281 -181.002 
v -41 -0.000488281 -164.002 
v -41 39.9995 -181.002 
v -41 39.9995 -164.002 
v -26 38.9995 -165.002 
v -26 38.9995 -180.002 
v -26 23.9995 -180.002 
v -26 23.9995 -165.002 
v 129 -0.000490189 -180.002 
v 129 24.9995 -180.002 
v 129 24.9995 -211.002 
v 79 -0.000490189 -211.002 
v 79 -0.000490189 -122.002 
v 101 24.9995 -122.002 
v 101 -0.000490189 -138.002 
v 101 24.9995 -138.002 
v 101 24.9995 -150.002 
v 101 -0.000490189 -179.002 
v 101 -0.000490189 -150.002 
v -40 39.9995 -180.002 
v -25 39.9995 -181.002 
v -25 39.9995 -165.002 
v -40 39.9995 -165.002 
v 80 24.9995 -180.002 
v 80 24.9995 -210.002 
v 80 -0.000490189 -180.002 
v 80 -0.000490189 -165.002 
v 80 24.9995 -165.002 
v 80 -0.000490189 -164.002 
v 80 24.9995 -123.002 
v 128 -0.000490189 -210.002 
v -25 -0.000490189 -180.002 
v -40 -0.000488281 -165.002 
v 100 -0.000490189 -123.002 
v 100 24.9995 -180.002 
v -25 24.9995 -180.002 
v 128 24.9995 -180.002 
v 79 24.9995 -164.002 
v -25 24.9995 -165.002 
v 79 24.9995 -211.002 
v 79 -0.000490189 -211.002 
v 79 24.9995 -181.002 
v 79 -0.000490189 -181.002 
v 79 -0.000490189 -164.002 
v 79 -0.000490189 -122.002 
v 79 24.9995 -164.002 
v 79 24.9995 -122.002 
v 100 -0.000490189 -139.002 
v 100 -0.000490189 -123.002 
v 100 24.9995 -139.002 
v 100 24.9995 -123.002 
v 100 -0.000490189 -180.002 
v 100 -0.000490189 -149.002 
v 100 24.9995 -180.002 
v 100 24.9995 -149.002 
v 108 -0.000490189 -149.002 
v 108 -0.000490189 -139.002 
v 108 24.9995 -149.002 
v 108 24.9995 -139.002 
v 128 -0.000490189 -210.002 
v 128 24.9995 -180.002 
v 128 24.9995 -210.002 
v 128 -0.000490189 -180.002 
v -41 -0.000488281 -181.002 
v 101 24.9995 -138.002 
v 101 -0.000490189 -179.002 
v -40 39.9995 -180.002 
v -25 39.9995 -181.002 
v -25 39.9995 -165.002 
v -40 39.9995 -165.002 
v 80 -0.000490189 -180.002 
v 129 -0.000490189 -211.002 
v 128 -0.000490189 -210.002 
v 80 -0.000490189 -210.002 
v 128 -0.000490189 -180.002 
v 129 -0.000490189 -180.002 
v 79 -0.000490189 -211.002 
v 79 -0.000490189 -181.002 
v 80 -0.000490189 -180.002 
v -25 -0.000490189 -180.002 
v -40 -0.000488281 -180.002 
v -41 -0.000488281 -181.002 
v -41 -0.000488281 -164.002 
v -40 -0.000488281 -165.002 
v 80 -0.000490189 -165.002 
v 80 -0.000490189 -164.002 
v 79 -0.000490189 -122.002 
v 79 -0.000490189 -164.002 
v 80 -0.000490189 -123.002 
v 100 -0.000490189 -123.002 
v 101 -0.000490189 -122.002 
v 100 -0.000490189 -139.002 
v 101 -0.000490189 -138.002 
v 108 -0.000490189 -139.002 
v 109 -0.000490189 -138.002 
v 109 -0.000490189 -150.002 
v 108 -0.000490189 -149.002 
v 101 -0.000490189 -150.002 
v 100 -0.000490189 -149.002 
v 101 -0.000490189 -179.002 
v 100 -0.000490189 -180.002 
v 129 -0.000490189 -179.002 
v 128 24.9995 -180.002 
v -25 23.9995 -165.002 
v -26 23.9995 -165.002 
v -25 23.9995 -180.002 
v -26 23.9995 -180.002 
v -26 38.9995 -180.002 
v -40 38.9995 -165.002 
v -40 38.9995 -180.002 
v -26 38.9995 -165.002 
v -41 -0.000488281 -181.002 
v -41 -0.000488281 -164.002 
v -26 38.9995 -165.002 
v -26 38.9995 -180.002 
v 129 -0.000490189 -180.002 
v 129 24.9995 -180.002 
v 129 24.9995 -211.002 
v 129 24.9995 -211.002 
v 79 -0.000490189 -211.002 
v 79 24.9995 -211.002 
v 129 -0.000490189 -211.002 
v 79 -0.000490189 -122.002 
v 101 24.9995 -122.002 
v 101 -0.000490189 -138.002 
v 101 24.9995 -138.002 
v 101 -0.000490189 -179.002 
v -40 39.9995 -180.002 
v -25 39.9995 -181.002 
v -25 39.9995 -165.002 
v -40 39.9995 -165.002 
v 80 24.9995 -180.002 
v 80 24.9995 -210.002 
v 80 -0.000490189 -180.002 
v 80 -0.000490189 -165.002 
v 80 24.9995 -165.002 
v 80 -0.000490189 -164.002 
v 80 24.9995 -123.002 
v 128 -0.000490189 -210.002 
v -25 -0.000490189 -180.002 
v -40 -0.000488281 -180.002 
v -40 -0.000488281 -165.002 
v 100 -0.000490189 -123.002 
v 79 24.9995 -181.002 
v 79 -0.000490189 -181.002 
v -25 24.9995 -181.002 
v -41 -0.000488281 -181.002 
v -25 39.9995 -181.002 
v -41 39.9995 -181.002 
v 129 24.9995 -180.002 
v 100 -0.000490189 -180.002 
v 100 24.9995 -180.002 
v 129 -0.000490189 -180.002 
v -25 24.9995 -180.002 
v 79 24.9995 -164.002 
v -25 24.9995 -165.002 
v -26 23.9995 -165.002 
v -40 -0.000488281 -165.002 
v -26 38.9995 -165.002 
v -40 38.9995 -165.002 
v -25 23.9995 -165.002 
v 80 -0.000490189 -165.002 
v -25 24.9995 -165.002 
v 80 24.9995 -165.002 
v 79 -0.000490189 -164.002 
v 80 24.9995 -164.002 
v 80 -0.000490189 -164.002 
v 79 24.9995 -164.002 
v 101 -0.000490189 -150.002 
v 109 24.9995 -150.002 
v 109 -0.000490189 -150.002 
v 101 24.9995 -150.002 
v 108 24.9995 -139.002 
v 100 -0.000490189 -139.002 
v 100 24.9995 -139.002 
v 108 -0.000490189 -139.002 
v 80 24.9995 -123.002 
v 100 -0.000490189 -123.002 
v 80 -0.000490189 -123.002 
v 100 24.9995 -123.002 

vn -1 0 0 
vn -1 0 0 
vn -1 0 0 
vn 1 0 0 
vn 1 0 0 
vn 1 0 0 
vn 1 0 0 
vn 1 0 0 
vn 1 0 0 
vn 1 0 0 
vn 1 0 0 
vn 1 0 0 
vn 1 0 0 
vn 0 0 -1 
vn 0 0 1 
vn 0 0 1 
vn 1 0 0 
vn 1 0 0 
vn 1 0 0 
vn 1 0 0 
vn 1 0 0 
vn 1 0 0 
vn 1 0 0 
vn 1 0 0 
vn 0 1 0 
vn 0 1 0 
vn 0 1 0 
vn 0 1 0 
vn 1 0 0 
vn 1 0 0 
vn 1 0 0 
vn 1 0 0 
vn 1 0 0 
vn 1 0 0 
vn 1 0 0 
vn 1 0 0 
vn 1 0 0 
vn 1 0 0 
vn 0 -1 0 
vn 0 -1 0 
vn 0 -1 0 
vn 0 0 -1 
vn 0 1 0 
vn 0 1 0 
vn 0 1 0 
vn 0 1 0 
vn 1 0 0 
vn 1 0 0 
vn 1 0 0 
vn 1 0 0 
vn 1 0 0 
vn 1 0 0 
vn 1 0 0 
vn 1 0 0 
vn 1 0 0 
vn 1 0 0 
vn 1 0 0 
vn 1 0 0 
vn 1 0 0 
vn 1 0 0 
vn 1 0 0 
vn 1 0 0 
vn 0 1 0 
vn 0 1 0 
vn 0 1 0 
vn 0 1 0 
vn 0 1 0 
vn 0 1 0 
vn 0 1 0 
vn 0 1 0 
vn 0 -1 0 
vn 0 1 0 
vn 0 1 0 
vn 0 1 0 
vn 0 1 0 
vn 0 1 0 
vn 0 1 0 
vn 0 1 0 
vn 0 1 0 
vn 0 1 0 
vn 0 1 0 
vn 0 1 0 
vn 0 1 0 
vn 0 1 0 
vn 0 1 0 
vn 0 1 0 
vn 0 1 0 
vn 0 1 0 
vn 0 1 0 
vn 0 1 0 
vn 0 1 0 
vn 0 1 0 
vn 0 1 0 
vn 0 1 0 
vn 0 1 0 
vn 0 1 0 
vn 0 1 0 
vn 0 1 0 
vn 0 1 0 
vn 0 1 0 
vn 0 1 0 
vn -1 0 0 
vn -1 0 0 
vn -1 0 0 
vn -1 0 0 
vn 1 0 0 
vn 1 0 0 
vn 1 0 0 
vn 0 0 -1 
vn 0 0 1 
vn 0 0 1 
vn 0 0 1 
vn 0 0 1 
vn 1 0 0 
vn 1 0 0 
vn 1 0 0 
vn 0 0 1 
vn 0 0 1 
vn 0 0 1 
vn 0 0 1 
vn 0 1 0 
vn 0 1 0 
vn 0 1 0 
vn 0 1 0 
vn 1 0 0 
vn 1 0 0 
vn 1 0 0 
vn 1 0 0 
vn 1 0 0 
vn 1 0 0 
vn 1 0 0 
vn 0 0 1 
vn 0 0 1 
vn 0 0 1 
vn 0 0 1 
vn 0 -1 0 
vn 0 -1 0 
vn 0 -1 0 
vn 0 -1 0 
vn 0 -1 0 
vn 0 0 -1 
vn 0 1 0 
vn 0 1 0 
vn 0 1 0 
vn 0 0 1 
vn 0 0 1 
vn 0 0 1 
vn 0 0 1 
vn 0 0 1 
vn 0 0 1 
vn 0 0 1 
vn 0 0 1 
vn 0 0 1 
vn 0 0 1 
vn 0 0 1 
vn 0 0 1 
vn 0 0 1 
vn 0 0 1 
vn 0 0 1 
vn 0 0 1 
vn 0 0 1 
vn 0 0 1 
vn 0 0 1 
vn 0 0 1 
vn 0 0 1 
vn 0 0 1 
vn 0 0 1 
vn 0 0 1 
vn 0 0 1 
vn 0 0 1 
vn 0 0 1 
vn -1 0 0 
vn -1 0 0 
vn -1 0 0 
vn -1 0 0 
vn -1 0 0 
vn -1 0 0 
vn -1 0 0 
vn -1 0 0 
vn 1 0 0 
vn 1 0 0 
vn 1 0 0 
vn 0 0 -1 
vn 0 0 1 
vn 0 0 1 
vn 1 0 0 
vn 1 0 0 
vn 1 0 0 
vn 1 0 0 
vn 1 0 0 
vn 0 1 0 
vn 0 1 0 
vn 0 1 0 
vn 0 1 0 
vn 1 0 0 
vn 1 0 0 
vn 1 0 0 
vn 1 0 0 
vn 1 0 0 
vn 1 0 0 
vn 1 0 0 
vn 0 -1 0 
vn 0 -1 0 
vn 0 -1 0 
vn 0 -1 0 
vn 0 0 -1 
vn 0 1 0 
vn 0 1 0 
vn 0 1 0 
vn 0 1 0 
vn -1 0 0 
vn -1 0 0 
vn -1 0 0 
vn -1 0 0 
vn -1 0 0 
vn -1 0 0 
vn -1 0 0 
vn -1 0 0 
vn -1 0 0 
vn -1 0 0 
vn -1 0 0 
vn -1 0 0 
vn -1 0 0 
vn -1 0 0 
vn -1 0 0 
vn -1 0 0 
vn -1 0 0 
vn -1 0 0 
vn -1 0 0 
vn -1 0 0 
vn -1 0 0 
vn -1 0 0 
vn -1 0 0 
vn -1 0 0 
vn -1 0 0 
vn 1 0 0 
vn 1 0 0 
vn 0 1 0 
vn 0 1 0 
vn 0 1 0 
vn 0 1 0 
vn 1 0 0 
vn 0 -1 0 
vn 0 -1 0 
vn 0 -1 0 
vn 0 -1 0 
vn 0 -1 0 
vn 0 -1 0 
vn 0 -1 0 
vn 0 -1 0 
vn 0 -1 0 
vn 0 -1 0 
vn 0 -1 0 
vn 0 -1 0 
vn 0 -1 0 
vn 0 -1 0 
vn 0 -1 0 
vn 0 -1 0 
vn 0 -1 0 
vn 0 -1 0 
vn 0 -1 0 
vn 0 -1 0 
vn 0 -1 0 
vn 0 -1 0 
vn 0 -1 0 
vn 0 -1 0 
vn 0 -1 0 
vn 0 -1 0 
vn 0 -1 0 
vn 0 -1 0 
vn 0 -1 0 
vn 0 -1 0 
vn 0 -1 0 
vn 0 1 0 
vn 0 -1 0 
vn 0 -1 0 
vn 0 -1 0 
vn 0 -1 0 
vn 0 -1 0 
vn 0 -1 0 
vn 0 -1 0 
vn 0 -1 0 
vn -1 0 0 
vn -1 0 0 
vn -1 0 0 
vn -1 0 0 
vn 1 0 0 
vn 1 0 0 
vn 1 0 0 
vn 0 0 -1 
vn 0 0 -1 
vn 0 0 -1 
vn 0 0 -1 
vn 0 0 1 
vn 0 0 1 
vn 1 0 0 
vn 1 0 0 
vn 1 0 0 
vn 0 1 0 
vn 0 1 0 
vn 0 1 0 
vn 0 1 0 
vn 1 0 0 
vn 1 0 0 
vn 1 0 0 
vn 1 0 0 
vn 1 0 0 
vn 1 0 0 
vn 1 0 0 
vn 0 -1 0 
vn 0 -1 0 
vn 0 -1 0 
vn 0 -1 0 
vn 0 -1 0 
vn 0 0 -1 
vn 0 0 -1 
vn 0 0 -1 
vn 0 0 -1 
vn 0 0 -1 
vn 0 0 -1 
vn 0 0 -1 
vn 0 0 -1 
vn 0 0 -1 
vn 0 0 -1 
vn 0 1 0 
vn 0 1 0 
vn 0 1 0 
vn 0 0 -1 
vn 0 0 -1 
vn 0 0 -1 
vn 0 0 -1 
vn 0 0 -1 
vn 0 0 -1 
vn 0 0 -1 
vn 0 0 -1 
vn 0 0 -1 
vn 0 0 -1 
vn 0 0 -1 
vn 0 0 -1 
vn 0 0 -1 
vn 0 0 -1 
vn 0 0 -1 
vn 0 0 -1 
vn 0 0 -1 
vn 0 0 -1 
vn 0 0 -1 
vn 0 0 -1 
vn 0 0 -1 
vn 0 0 -1 
vn 0 0 -1 
vn 0 0 -1 

vt 49.8125 -39.5 
vt 47.6875 -39.5 
vt 47.8125 -34.625 
vt 49.6875 -39.5 
vt 49.5625 -36.375 
vt 49.5625 -39.5 
vt 49.6875 -36.375 
vt 53.5625 -39.5 
vt 53.5625 -36.375 
vt 45.9375 -39.5 
vt 44.4375 -36.375 
vt 44.4375 -39.5 
vt 45.9375 -36.375 
vt 53.5625 -39.5 
vt 42.4375 -39.5 
vt 42.4375 -36.375 
vt 44.4375 -39.5 
vt 42.4375 -36.375 
vt 42.4375 -39.5 
vt 44.4375 -36.375 
vt 45.9375 -36.375 
vt 49.5625 -39.5 
vt 49.5625 -36.375 
vt 45.9375 -39.5 
vt 49.6875 -34.5 
vt 49.8125 -34.5 
vt 47.8125 -34.5 
vt 47.8125 -34.5 
vt 49.6875 -36.375 
vt 53.4375 -39.5 
vt 53.4375 -36.375 
vt 49.6875 -39.5 
vt 47.6875 -36.375 
vt 47.8125 -39.5 
vt 47.8125 -36.375 
vt 47.6875 -39.5 
vt 42.5625 -36.375 
vt 42.5625 -39.5 
vt 53.4375 -39.5 
vt 49.6875 -39.5 
vt 42.5625 -39.5 
vt 49.6875 -36.375 
vt 49.6875 -36.375 
vt 49.6875 -36.375 
vt 47.6875 -36.375 
vt 47.8125 -36.375 
vt 49.6875 -34.5 
vt 49.8125 -36.375 
vt 49.8125 -34.5 
vt 49.6875 -36.375 
vt 47.8125 -34.5 
vt 49.6875 -36.5 
vt 47.8125 -36.375 
vt 47.8125 -36.5 
vt 47.6875 -34.5 
vt 47.6875 -36.375 
vt 49.6875 -39.5 
vt 47.8125 -34.625 
vt 47.8125 -39.5 
vt 49.6875 -34.625 
vt 40.875 -33.4375 
vt 40.875 -38.5625 
vt 58.5 -38.6875 
vt 56.625 -38.6875 
vt 56.625 -38.8125 
vt 56.625 -36.8125 
vt 58.625 -38.8125 
vt 58.5 -36.8125 
vt 56.625 -36.6875 
vt 58.625 -36.6875 
vt 37.5 -42.4375 
vt 43.5 -42.4375 
vt 37.5 -42.4375 
vt 43.625 -42.5625 
vt 43.5 -38.6875 
vt 37.375 -42.5625 
vt 43.625 -38.8125 
vt 56.625 -38.8125 
vt 56.625 -38.6875 
vt 37.375 -38.6875 
vt 37.5 -38.6875 
vt 41 -38.6875 
vt 37.375 -38.5625 
vt 40.875 -38.5625 
vt 40.875 -34.9375 
vt 41 -34.8125 
vt 40 -34.8125 
vt 39.875 -34.9375 
vt 39.875 -33.4375 
vt 40 -33.5625 
vt 40.875 -33.4375 
vt 41 -33.5625 
vt 40.875 -31.4375 
vt 41 -31.5625 
vt 43.625 -31.4375 
vt 43.5 -31.5625 
vt 43.625 -36.6875 
vt 43.5 -36.6875 
vt 43.5 -36.8125 
vt 56.625 -36.8125 
vt 56.625 -36.6875 
vt 37.375 -39.5 
vt 37.375 -39.5 
vt 39.25 -34.625 
vt 39.25 -34.625 
vt 58.625 -39.5 
vt 58.625 -36.375 
vt 58.625 -36.375 
vt 52.375 -39.5 
vt 52.375 -39.5 
vt 55.125 -39.5 
vt 52.375 -36.375 
vt 55.125 -36.375 
vt 55.125 -39.5 
vt 55.125 -36.375 
vt 55.125 -39.5 
vt 55.125 -39.5 
vt 56.125 -39.5 
vt 55.125 -36.375 
vt 56.125 -36.375 
vt 37.5 -34.5 
vt 39.375 -34.5 
vt 39.375 -34.5 
vt 37.5 -34.5 
vt 52.5 -36.375 
vt 52.5 -36.375 
vt 52.5 -39.5 
vt 52.5 -39.5 
vt 52.5 -36.375 
vt 52.5 -39.5 
vt 52.5 -36.375 
vt 55 -39.5 
vt 56 -39.5 
vt 55 -36.375 
vt 56 -36.375 
vt 58.5 -39.5 
vt 39.375 -39.5 
vt 37.5 -39.5 
vt 37.5 -39.5 
vt 55 -39.5 
vt 55 -36.375 
vt 39.375 -36.375 
vt 52.375 -36.375 
vt 39.375 -36.375 
vt 37.375 -34.5 
vt 37.375 -39.5 
vt 39.375 -36.375 
vt 39.375 -34.5 
vt 52.5 -39.5 
vt 52.5 -36.375 
vt 55.125 -39.5 
vt 58.625 -36.375 
vt 55.125 -36.375 
vt 58.625 -39.5 
vt 52.5 -39.5 
vt 39.375 -36.375 
vt 39.375 -36.5 
vt 52.5 -36.375 
vt 39.375 -39.5 
vt 39.25 -36.5 
vt 37.5 -34.625 
vt 37.5 -39.5 
vt 39.25 -34.625 
vt 58.625 -39.5 
vt 58.5 -36.375 
vt 58.5 -39.5 
vt 58.625 -36.375 
vt 52.5 -36.375 
vt 58.5 -39.5 
vt 58.5 -36.375 
vt 52.5 -39.5 
vt 46.1875 -39.5 
vt 48.3125 -39.5 
vt 46.1875 -34.5 
vt 48.3125 -34.5 
vt 48.1875 -34.625 
vt 46.3125 -34.625 
vt 46.3125 -36.5 
vt 48.1875 -36.5 
vt 46.3125 -39.5 
vt 46.3125 -36.375 
vt 42.4375 -36.375 
vt 42.4375 -39.5 
vt 53.5625 -39.5 
vt 53.5625 -36.375 
vt 51.5625 -39.5 
vt 51.5625 -36.375 
vt 50.0625 -36.375 
vt 46.4375 -39.5 
vt 50.0625 -39.5 
vt 46.3125 -34.5 
vt 46.1875 -34.5 
vt 48.1875 -34.5 
vt 48.1875 -34.5 
vt 46.3125 -36.375 
vt 42.5625 -36.375 
vt 46.3125 -39.5 
vt 48.1875 -39.5 
vt 48.1875 -36.375 
vt 48.3125 -39.5 
vt 53.4375 -36.375 
vt 42.5625 -39.5 
vt 46.3125 -39.5 
vt 48.1875 -39.5 
vt 53.4375 -39.5 
vt 46.3125 -36.375 
vt 46.3125 -36.375 
vt 46.3125 -36.375 
vt 48.3125 -36.375 
vt 48.1875 -36.375 
vt 42.4375 -36.375 
vt 42.4375 -39.5 
vt 46.1875 -36.375 
vt 46.1875 -39.5 
vt 48.3125 -39.5 
vt 53.5625 -39.5 
vt 48.3125 -36.375 
vt 53.5625 -36.375 
vt 51.4375 -39.5 
vt 53.4375 -39.5 
vt 51.4375 -36.375 
vt 53.4375 -36.375 
vt 46.3125 -39.5 
vt 50.1875 -39.5 
vt 46.3125 -36.375 
vt 50.1875 -36.375 
vt 50.1875 -39.5 
vt 51.4375 -39.5 
vt 50.1875 -36.375 
vt 51.4375 -36.375 
vt 42.5625 -39.5 
vt 46.3125 -36.375 
vt 42.5625 -36.375 
vt 46.3125 -39.5 
vt 37.375 -38.8125 
vt 55.125 -33.4375 
vt 55.125 -38.5625 
vt 37.5 -38.6875 
vt 39.375 -38.8125 
vt 39.375 -36.8125 
vt 37.5 -36.8125 
vt 52.5 -38.6875 
vt 58.625 -42.5625 
vt 58.5 -42.4375 
vt 52.5 -42.4375 
vt 58.5 -38.6875 
vt 58.625 -38.6875 
vt 52.375 -42.5625 
vt 52.375 -38.8125 
vt 52.5 -38.6875 
vt 39.375 -38.6875 
vt 37.5 -38.6875 
vt 37.375 -38.8125 
vt 37.375 -36.6875 
vt 37.5 -36.8125 
vt 52.5 -36.8125 
vt 52.5 -36.6875 
vt 52.375 -31.4375 
vt 52.375 -36.6875 
vt 52.5 -31.5625 
vt 55 -31.5625 
vt 55.125 -31.4375 
vt 55 -33.5625 
vt 55.125 -33.4375 
vt 56 -33.5625 
vt 56.125 -33.4375 
vt 56.125 -34.9375 
vt 56 -34.8125 
vt 55.125 -34.9375 
vt 55 -34.8125 
vt 55.125 -38.5625 
vt 55 -38.6875 
vt 58.625 -38.5625 
vt 58.5 -38.6875 
vt 39.375 -36.8125 
vt 39.25 -36.8125 
vt 39.375 -38.6875 
vt 39.25 -38.6875 
vt 39.25 -38.6875 
vt 37.5 -36.8125 
vt 37.5 -38.6875 
vt 39.25 -36.8125 
vt 58.625 -39.5 
vt 58.625 -39.5 
vt 56.75 -34.625 
vt 56.75 -34.625 
vt 37.375 -39.5 
vt 37.375 -36.375 
vt 37.375 -36.375 
vt 37.375 -36.375 
vt 43.625 -39.5 
vt 43.625 -36.375 
vt 37.375 -39.5 
vt 43.625 -39.5 
vt 40.875 -36.375 
vt 40.875 -39.5 
vt 40.875 -36.375 
vt 40.875 -39.5 
vt 58.5 -34.5 
vt 56.625 -34.5 
vt 56.625 -34.5 
vt 58.5 -34.5 
vt 43.5 -36.375 
vt 43.5 -36.375 
vt 43.5 -39.5 
vt 43.5 -39.5 
vt 43.5 -36.375 
vt 43.5 -39.5 
vt 43.5 -36.375 
vt 37.5 -39.5 
vt 56.625 -39.5 
vt 58.5 -39.5 
vt 58.5 -39.5 
vt 41 -39.5 
vt 43.625 -36.375 
vt 43.625 -39.5 
vt 56.625 -36.375 
vt 58.625 -39.5 
vt 56.625 -34.5 
vt 58.625 -34.5 
vt 37.375 -36.375 
vt 41 -39.5 
vt 41 -36.375 
vt 37.375 -39.5 
vt 56.625 -36.375 
vt 43.625 -36.375 
vt 56.625 -36.375 
vt 56.75 -36.5 
vt 58.5 -39.5 
vt 56.75 -34.625 
vt 58.5 -34.625 
vt 56.625 -36.5 
vt 43.5 -39.5 
vt 56.625 -36.375 
vt 43.5 -36.375 
vt 43.625 -39.5 
vt 43.5 -36.375 
vt 43.5 -39.5 
vt 43.625 -36.375 
vt 40.875 -39.5 
vt 39.875 -36.375 
vt 39.875 -39.5 
vt 40.875 -36.375 
vt 40 -36.375 
vt 41 -39.5 
vt 41 -36.375 
vt 40 -39.5 
vt 43.5 -36.375 
vt 41 -39.5 
vt 43.5 -39.5 
vt 41 -36.375 

usemtl Union271Mtl

f 294/294/294 295/295/295 296/296/296 
f 295/295/295 294/294/294 297/297/297 
f 298/298/298 297/297/297 294/294/294 
f 297/297/297 298/298/298 299/299/299 
f 300/300/300 301/301/301 302/302/302 
f 301/301/301 300/300/300 303/303/303 
f 307/307/307 308/308/308 309/309/309 
f 308/308/308 307/307/307 310/310/310 
f 311/311/311 312/312/312 313/313/313 
f 312/312/312 311/311/311 314/314/314 
f 319/319/319 320/320/320 321/321/321 
f 322/322/322 320/320/320 319/319/319 
f 323/323/323 324/324/324 325/325/325 
f 324/324/324 323/323/323 326/326/326 
f 327/327/327 326/326/326 323/323/323 
f 327/327/327 328/328/328 326/326/326 
f 337/337/337 338/338/338 339/339/339 
f 338/338/338 337/337/337 340/340/340 
f 340/340/340 337/337/337 341/341/341 
f 340/340/340 341/341/341 342/342/342 
f 343/343/343 342/342/342 341/341/341 
f 343/343/343 344/344/344 342/342/342 
f 345/345/345 343/343/343 341/341/341 
f 343/343/343 345/345/345 346/346/346 
f 347/347/347 348/348/348 349/349/349 
f 348/348/348 347/347/347 350/350/350 
f 353/353/353 354/354/354 355/355/355 
f 353/353/353 356/356/356 354/354/354 
f 353/353/353 355/355/355 357/357/357 
f 356/356/356 353/353/353 358/358/358 
f 357/357/357 358/358/358 353/353/353 
f 359/359/359 356/356/356 358/358/358 
f 357/357/357 360/360/360 358/358/358 
f 358/358/358 360/360/360 359/359/359 
f 362/362/362 363/363/363 364/364/364 
f 364/364/364 365/365/365 362/362/362 
f 366/366/366 364/364/364 363/363/363 
f 364/364/364 367/367/367 365/365/365 
f 365/365/365 367/367/367 368/368/368 
f 369/369/369 365/365/365 368/368/368 
f 363/363/363 370/370/370 366/366/366 
f 371/371/371 370/370/370 363/363/363 
f 370/370/370 372/372/372 373/373/373 
f 374/374/374 373/373/373 372/372/372 
f 372/372/372 375/375/375 374/374/374 
f 372/372/372 376/376/376 375/375/375 
f 376/376/376 377/377/377 375/375/375 
f 378/378/378 375/375/375 377/377/377 
f 377/377/377 379/379/379 378/378/378 
f 377/377/377 380/380/380 379/379/379 
f 381/381/381 379/379/379 380/380/380 
f 382/382/382 381/381/381 380/380/380 
f 382/382/382 383/383/383 381/381/381 
f 382/382/382 384/384/384 383/383/383 
f 385/385/385 383/383/383 384/384/384 
f 385/385/385 384/384/384 386/386/386 
f 387/387/387 385/385/385 386/386/386 
f 387/387/387 386/386/386 388/388/388 
f 388/388/388 389/389/389 390/390/390 
f 391/391/391 388/388/388 390/390/390 
f 400/400/400 401/401/401 402/402/402 
f 401/401/401 403/403/403 402/402/402 
f 407/407/407 408/408/408 409/409/409 
f 409/409/409 408/408/408 410/410/410 
f 422/422/422 423/423/423 424/424/424 
f 424/424/424 423/423/423 425/425/425 
f 435/435/435 436/436/436 437/437/437 
f 435/435/435 437/437/437 438/438/438 
f 436/436/436 439/439/439 437/437/437 
f 439/439/439 440/440/440 437/437/437 
f 441/441/441 442/442/442 443/443/443 
f 441/441/441 444/444/444 442/442/442 
f 445/445/445 446/446/446 447/447/447 
f 446/446/446 445/445/445 448/448/448 
f 449/449/449 445/445/445 447/447/447 
f 450/450/450 449/449/449 447/447/447 
f 450/450/450 451/451/451 449/449/449 
f 449/449/449 451/451/451 452/452/452 
f 450/450/450 453/453/453 451/451/451 
f 454/454/454 455/455/455 456/456/456 
f 455/455/455 454/454/454 457/457/457 
f 458/458/458 459/459/459 460/460/460 
f 461/461/461 459/459/459 458/458/458 
f 462/462/462 463/463/463 464/464/464 
f 464/464/464 463/463/463 465/465/465 
f 466/466/466 467/467/467 468/468/468 
f 469/469/469 466/466/466 468/468/468 
f 501/501/501 502/502/502 503/503/503 
f 502/502/502 504/504/504 503/503/503 
f 505/505/505 506/506/506 507/507/507 
f 507/507/507 506/506/506 508/508/508 
f 509/509/509 510/510/510 511/511/511 
f 511/511/511 510/510/510 512/512/512 
f 513/513/513 514/514/514 515/515/515 
f 514/514/514 516/516/516 515/515/515 
f 517/517/517 518/518/518 519/519/519 
f 519/519/519 518/518/518 520/520/520 
f 521/521/521 522/522/522 523/523/523 
f 521/521/521 524/524/524 522/522/522 
f 533/533/533 534/534/534 535/535/535 
f 533/533/533 536/536/536 534/534/534 
f 537/537/537 536/536/536 533/533/533 
f 538/538/538 533/533/533 535/535/535 
f 538/538/538 535/535/535 539/539/539 
f 535/535/535 540/540/540 539/539/539 
f 539/539/539 540/540/540 541/541/541 
f 539/539/539 541/541/541 542/542/542 
f 539/539/539 542/542/542 543/543/543 
f 544/544/544 543/543/543 542/542/542 
f 544/544/544 542/542/542 545/545/545 
f 546/546/546 544/544/544 545/545/545 
f 546/546/546 547/547/547 544/544/544 
f 547/547/547 548/548/548 549/549/549 
f 548/548/548 547/547/547 550/550/550 
f 551/551/551 548/548/548 550/550/550 
f 551/551/551 552/552/552 548/548/548 
f 551/551/551 553/553/553 552/552/552 
f 552/552/552 553/553/553 554/554/554 
f 555/555/555 554/554/554 553/553/553 
f 555/555/555 556/556/556 554/554/554 
f 556/556/556 555/555/555 557/557/557 
f 557/557/557 555/555/555 558/558/558 
f 557/557/557 558/558/558 559/559/559 
f 559/559/559 558/558/558 560/560/560 
f 559/559/559 560/560/560 561/561/561 
f 561/561/561 560/560/560 562/562/562 
f 561/561/561 562/562/562 537/537/537 
f 563/563/563 561/561/561 537/537/537 
f 565/565/565 566/566/566 567/567/567 
f 568/568/568 567/567/567 566/566/566 
f 569/569/569 570/570/570 571/571/571 
f 570/570/570 569/569/569 572/572/572 
f 580/580/580 581/581/581 582/582/582 
f 581/581/581 580/580/580 583/583/583 
f 605/605/605 606/606/606 607/607/607 
f 607/607/607 606/606/606 608/608/608 
f 607/607/607 608/608/608 609/609/609 
f 609/609/609 608/608/608 610/610/610 
f 611/611/611 612/612/612 613/613/613 
f 612/612/612 611/611/611 614/614/614 
f 618/618/618 619/619/619 620/620/620 
f 620/620/620 619/619/619 621/621/621 
f 618/618/618 622/622/622 619/619/619 
f 623/623/623 619/619/619 622/622/622 
f 622/622/622 624/624/624 623/623/623 
f 624/624/624 625/625/625 623/623/623 
f 626/626/626 627/627/627 628/628/628 
f 627/627/627 626/626/626 629/629/629 
f 630/630/630 631/631/631 632/632/632 
f 631/631/631 630/630/630 633/633/633 
f 634/634/634 635/635/635 636/636/636 
f 637/637/637 635/635/635 634/634/634 
f 638/638/638 639/639/639 640/640/640 
f 641/641/641 639/639/639 638/638/638 

g Union291

v 128 1 -180.001 
v 128 9.53674e-07 -210.001 
v 128 1 -210.001 
v 128 9.53674e-07 -180.001 
v 128 25 -180.001 
v 128 24 -180.001 
v 128 24 -210.001 
v 128 25 -210.001 
v 108 1 -139.001 
v 108 1.90735e-06 -139.001 
v 108 1.90735e-06 -149.001 
v 108 1 -149.001 
v 108 25 -139.001 
v 108 24 -149.001 
v 108 25 -149.001 
v 108 24 -139.001 
v 100 1 -149.001 
v 100 9.53674e-07 -180.001 
v 100 1 -180.001 
v 100 1.90735e-06 -149.001 
v 100 1.90735e-06 -139.001 
v 100 1 -123.001 
v 100 9.53674e-07 -123.001 
v 100 1 -139.001 
v 100 24 -149.001 
v 100 25 -180.001 
v 100 25 -149.001 
v 100 24 -180.001 
v 100 25 -139.001 
v 100 25 -123.001 
v 100 24 -123.001 
v 100 24 -139.001 
v 80 25 -210.001 
v 100 25 -123.001 
v 100 25 -139.001 
v 100 25 -149.001 
v 108 25 -139.001 
v 108 25 -149.001 
v 100 25 -180.001 
v 100 25 -210.001 
v 128 25 -180.001 
v 128 25 -210.001 
v 80 25 -180.001 
v 80 25 -165.001 
v 80 25 -123.001 
v -25 25 -180.001 
v -25 25 -165.001 
v -25 1 -165.001 
v 80 1 -165.001 
v -25 1 -180.001 
v 80 1 -180.001 
v 100 1 -123.001 
v 80 1 -123.001 
v 80 1 -210.001 
v 100 1 -139.001 
v 100 1 -149.001 
v 108 1 -139.001 
v 108 1 -149.001 
v 100 1 -180.001 
v 128 1 -210.001 
v 128 1 -180.001 
v 100 1 -123.001 
v 80 1 -123.001 
v 100 9.53674e-07 -123.001 
v 80 9.53674e-07 -123.001 
v 100 25 -123.001 
v 80 25 -123.001 
v 100 24 -123.001 
v 80 24 -123.001 
v 108 1 -139.001 
v 100 1 -139.001 
v 108 1.90735e-06 -139.001 
v 100 1.90735e-06 -139.001 
v 108 24 -139.001 
v 100 25 -139.001 
v 100 24 -139.001 
v 108 25 -139.001 
v -25 1 -165.001 
v 80 9.53674e-07 -165.001 
v 80 1 -165.001 
v -25 9.53674e-07 -165.001 
v 80 25 -165.001 
v -25 25 -165.001 
v 80 24 -165.001 
v -25 24 -165.001 
v 128 9.53674e-07 -180.001 
v 100 1 -180.001 
v 100 9.53674e-07 -180.001 
v 128 1 -180.001 
v 128 24 -180.001 
v 100 25 -180.001 
v 100 24 -180.001 
v 128 25 -180.001 
v -25 9.53674e-07 -180.001 
v -25 9.53674e-07 -165.001 
v -25 1 -180.001 
v -25 1 -165.001 
v -25 25 -165.001 
v -25 25 -180.001 
v -25 24 -165.001 
v -25 24 -180.001 
v 80 1 -165.001 
v 80 9.53674e-07 -123.001 
v 80 1 -123.001 
v 80 9.53674e-07 -165.001 
v 80 1 -180.001 
v 80 1 -210.001 
v 80 9.53674e-07 -180.001 
v 80 9.53674e-07 -210.001 
v 80 24 -165.001 
v 80 24 -123.001 
v 80 25 -123.001 
v 80 25 -165.001 
v 80 25 -180.001 
v 80 24 -210.001 
v 80 24 -180.001 
v 80 25 -210.001 
v 80 9.53674e-07 -180.001 
v 80 9.53674e-07 -165.001 
v -25 9.53674e-07 -165.001 
v -25 9.53674e-07 -180.001 
v 100 9.53674e-07 -180.001 
v 80 9.53674e-07 -210.001 
v 128 9.53674e-07 -210.001 
v 128 9.53674e-07 -180.001 
v 80 9.53674e-07 -123.001 
v 100 1.90735e-06 -149.001 
v 100 1.90735e-06 -139.001 
v 100 9.53674e-07 -123.001 
v 108 1.90735e-06 -149.001 
v 108 1.90735e-06 -139.001 
v 100 24 -139.001 
v 80 24 -123.001 
v 100 24 -149.001 
v 108 24 -149.001 
v 108 24 -139.001 
v 100 24 -123.001 
v 100 24 -180.001 
v 128 24 -210.001 
v 128 24 -180.001 
v 100 24 -210.001 
v 80 24 -165.001 
v 80 24 -180.001 
v 80 24 -210.001 
v -25 24 -165.001 
v -25 24 -180.001 
v 128 1 -210.001 
v 80 9.53674e-07 -210.001 
v 80 1 -210.001 
v 128 9.53674e-07 -210.001 
v 100 25 -210.001 
v 100 24 -210.001 
v 80 24 -210.001 
v 80 25 -210.001 
v 128 25 -210.001 
v 128 24 -210.001 
v 80 9.53674e-07 -180.001 
v -25 9.53674e-07 -180.001 
v 80 1 -180.001 
v -25 1 -180.001 
v 80 24 -180.001 
v -25 24 -180.001 
v 80 25 -180.001 
v -25 25 -180.001 
v 108 1 -149.001 
v 100 1.90735e-06 -149.001 
v 100 1 -149.001 
v 108 1.90735e-06 -149.001 
v 100 25 -149.001 
v 108 25 -149.001 
v 100 24 -149.001 
v 108 24 -149.001 

vn 1 0 0 
vn 1 0 0 
vn 1 0 0 
vn 1 0 0 
vn 1 0 0 
vn 1 0 0 
vn 1 0 0 
vn 1 0 0 
vn 1 0 0 
vn 1 0 0 
vn 1 0 0 
vn 1 0 0 
vn 1 0 0 
vn 1 0 0 
vn 1 0 0 
vn 1 0 0 
vn 1 0 0 
vn 1 0 0 
vn 1 0 0 
vn 1 0 0 
vn 1 0 0 
vn 1 0 0 
vn 1 0 0 
vn 1 0 0 
vn 1 0 0 
vn 1 0 0 
vn 1 0 0 
vn 1 0 0 
vn 1 0 0 
vn 1 0 0 
vn 1 0 0 
vn 1 0 0 
vn 0 1 0 
vn 0 1 0 
vn 0 1 0 
vn 0 1 0 
vn 0 1 0 
vn 0 1 0 
vn 0 1 0 
vn 0 1 0 
vn 0 1 0 
vn 0 1 0 
vn 0 1 0 
vn 0 1 0 
vn 0 1 0 
vn 0 1 0 
vn 0 1 0 
vn 0 1 0 
vn 0 1 0 
vn 0 1 0 
vn 0 1 0 
vn 0 1 0 
vn 0 1 0 
vn 0 1 0 
vn 0 1 0 
vn 0 1 0 
vn 0 1 0 
vn 0 1 0 
vn 0 1 0 
vn 0 1 0 
vn 0 1 0 
vn 0 0 1 
vn 0 0 1 
vn 0 0 1 
vn 0 0 1 
vn 0 0 1 
vn 0 0 1 
vn 0 0 1 
vn 0 0 1 
vn 0 0 1 
vn 0 0 1 
vn 0 0 1 
vn 0 0 1 
vn 0 0 1 
vn 0 0 1 
vn 0 0 1 
vn 0 0 1 
vn 0 0 1 
vn 0 0 1 
vn 0 0 1 
vn 0 0 1 
vn 0 0 1 
vn 0 0 1 
vn 0 0 1 
vn 0 0 1 
vn 0 0 1 
vn 0 0 1 
vn 0 0 1 
vn 0 0 1 
vn 0 0 1 
vn 0 0 1 
vn 0 0 1 
vn 0 0 1 
vn -1 0 0 
vn -1 0 0 
vn -1 0 0 
vn -1 0 0 
vn -1 0 0 
vn -1 0 0 
vn -1 0 0 
vn -1 0 0 
vn -1 0 0 
vn -1 0 0 
vn -1 0 0 
vn -1 0 0 
vn -1 0 0 
vn -1 0 0 
vn -1 0 0 
vn -1 0 0 
vn -1 0 0 
vn -1 0 0 
vn -1 0 0 
vn -1 0 0 
vn -1 0 0 
vn -1 0 0 
vn -1 0 0 
vn -1 0 0 
vn 0 -1 0 
vn 0 -1 0 
vn 0 -1 0 
vn 0 -1 0 
vn 0 -1 0 
vn 0 -1 0 
vn 0 -1 0 
vn 0 -1 0 
vn 0 -1 0 
vn 0 -1 0 
vn 0 -1 0 
vn 0 -1 0 
vn 0 -1 0 
vn 0 -1 0 
vn 0 -1 0 
vn 0 -1 0 
vn 0 -1 0 
vn 0 -1 0 
vn 0 -1 0 
vn 0 -1 0 
vn 0 -1 0 
vn 0 -1 0 
vn 0 -1 0 
vn 0 -1 0 
vn 0 -1 0 
vn 0 -1 0 
vn 0 -1 0 
vn 0 -1 0 
vn 0 -1 0 
vn 0 0 -1 
vn 0 0 -1 
vn 0 0 -1 
vn 0 0 -1 
vn 0 0 -1 
vn 0 0 -1 
vn 0 0 -1 
vn 0 0 -1 
vn 0 0 -1 
vn 0 0 -1 
vn 0 0 -1 
vn 0 0 -1 
vn 0 0 -1 
vn 0 0 -1 
vn 0 0 -1 
vn 0 0 -1 
vn 0 0 -1 
vn 0 0 -1 
vn 0 0 -1 
vn 0 0 -1 
vn 0 0 -1 
vn 0 0 -1 
vn 0 0 -1 
vn 0 0 -1 
vn 0 0 -1 
vn 0 0 -1 

vt 9.6875 -24.4375 
vt 13.4375 -24.5625 
vt 13.4375 -24.4375 
vt 9.6875 -24.5625 
vt 9.6875 -21.4375 
vt 9.6875 -21.5625 
vt 13.4375 -21.5625 
vt 13.4375 -21.4375 
vt 4.5625 -24.4375 
vt 4.5625 -24.5625 
vt 5.8125 -24.5625 
vt 5.8125 -24.4375 
vt 4.5625 -21.4375 
vt 5.8125 -21.5625 
vt 5.8125 -21.4375 
vt 4.5625 -21.5625 
vt 5.8125 -24.4375 
vt 9.6875 -24.5625 
vt 9.6875 -24.4375 
vt 5.8125 -24.5625 
vt 4.5625 -24.5625 
vt 2.5625 -24.4375 
vt 2.5625 -24.5625 
vt 4.5625 -24.4375 
vt 5.8125 -21.5625 
vt 9.6875 -21.4375 
vt 5.8125 -21.4375 
vt 9.6875 -21.5625 
vt 4.5625 -21.4375 
vt 2.5625 -21.4375 
vt 2.5625 -21.5625 
vt 4.5625 -21.5625 
vt 4.4375 -28.4375 
vt 1.9375 -17.5625 
vt 1.9375 -19.5625 
vt 1.9375 -20.8125 
vt 0.9375 -19.5625 
vt 0.9375 -20.8125 
vt 1.9375 -24.6875 
vt 1.9375 -28.4375 
vt -1.5625 -24.6875 
vt -1.5625 -28.4375 
vt 4.4375 -24.6875 
vt 4.4375 -22.8125 
vt 4.4375 -17.5625 
vt 17.5625 -24.6875 
vt 17.5625 -22.8125 
vt 17.5625 -22.8125 
vt 4.4375 -22.8125 
vt 17.5625 -24.6875 
vt 4.4375 -24.6875 
vt 1.9375 -17.5625 
vt 4.4375 -17.5625 
vt 4.4375 -28.4375 
vt 1.9375 -19.5625 
vt 1.9375 -20.8125 
vt 0.9375 -19.5625 
vt 0.9375 -20.8125 
vt 1.9375 -24.6875 
vt -1.5625 -28.4375 
vt -1.5625 -24.6875 
vt 14.0625 -24.4375 
vt 11.5625 -24.4375 
vt 14.0625 -24.5625 
vt 11.5625 -24.5625 
vt 14.0625 -21.4375 
vt 11.5625 -21.4375 
vt 14.0625 -21.5625 
vt 11.5625 -21.5625 
vt 15.0625 -24.4375 
vt 14.0625 -24.4375 
vt 15.0625 -24.5625 
vt 14.0625 -24.5625 
vt 15.0625 -21.5625 
vt 14.0625 -21.4375 
vt 14.0625 -21.5625 
vt 15.0625 -21.4375 
vt -1.5625 -24.4375 
vt 11.5625 -24.5625 
vt 11.5625 -24.4375 
vt -1.5625 -24.5625 
vt 11.5625 -21.4375 
vt -1.5625 -21.4375 
vt 11.5625 -21.5625 
vt -1.5625 -21.5625 
vt 17.5625 -24.5625 
vt 14.0625 -24.4375 
vt 14.0625 -24.5625 
vt 17.5625 -24.4375 
vt 17.5625 -21.5625 
vt 14.0625 -21.4375 
vt 14.0625 -21.5625 
vt 17.5625 -21.4375 
vt 6.3125 -24.5625 
vt 8.1875 -24.5625 
vt 6.3125 -24.4375 
vt 8.1875 -24.4375 
vt 8.1875 -21.4375 
vt 6.3125 -21.4375 
vt 8.1875 -21.5625 
vt 6.3125 -21.5625 
vt 8.1875 -24.4375 
vt 13.4375 -24.5625 
vt 13.4375 -24.4375 
vt 8.1875 -24.5625 
vt 6.3125 -24.4375 
vt 2.5625 -24.4375 
vt 6.3125 -24.5625 
vt 2.5625 -24.5625 
vt 8.1875 -21.5625 
vt 13.4375 -21.5625 
vt 13.4375 -21.4375 
vt 8.1875 -21.4375 
vt 6.3125 -21.4375 
vt 2.5625 -21.5625 
vt 6.3125 -21.5625 
vt 2.5625 -21.4375 
vt 11.5625 -24.6875 
vt 11.5625 -22.8125 
vt -1.5625 -22.8125 
vt -1.5625 -24.6875 
vt 14.0625 -24.6875 
vt 11.5625 -28.4375 
vt 17.5625 -28.4375 
vt 17.5625 -24.6875 
vt 11.5625 -17.5625 
vt 14.0625 -20.8125 
vt 14.0625 -19.5625 
vt 14.0625 -17.5625 
vt 15.0625 -20.8125 
vt 15.0625 -19.5625 
vt 14.0625 -19.5625 
vt 11.5625 -17.5625 
vt 14.0625 -20.8125 
vt 15.0625 -20.8125 
vt 15.0625 -19.5625 
vt 14.0625 -17.5625 
vt 14.0625 -24.6875 
vt 17.5625 -28.4375 
vt 17.5625 -24.6875 
vt 14.0625 -28.4375 
vt 11.5625 -22.8125 
vt 11.5625 -24.6875 
vt 11.5625 -28.4375 
vt -1.5625 -22.8125 
vt -1.5625 -24.6875 
vt -1.5625 -24.4375 
vt 4.4375 -24.5625 
vt 4.4375 -24.4375 
vt -1.5625 -24.5625 
vt 1.9375 -21.4375 
vt 1.9375 -21.5625 
vt 4.4375 -21.5625 
vt 4.4375 -21.4375 
vt -1.5625 -21.4375 
vt -1.5625 -21.5625 
vt 4.4375 -24.5625 
vt 17.5625 -24.5625 
vt 4.4375 -24.4375 
vt 17.5625 -24.4375 
vt 4.4375 -21.5625 
vt 17.5625 -21.5625 
vt 4.4375 -21.4375 
vt 17.5625 -21.4375 
vt 0.9375 -24.4375 
vt 1.9375 -24.5625 
vt 1.9375 -24.4375 
vt 0.9375 -24.5625 
vt 1.9375 -21.4375 
vt 0.9375 -21.4375 
vt 1.9375 -21.5625 
vt 0.9375 -21.5625 

usemtl Union291Mtl

f 642/642/642 643/643/643 644/644/644 
f 642/642/642 645/645/645 643/643/643 
f 646/646/646 647/647/647 648/648/648 
f 646/646/646 648/648/648 649/649/649 
f 650/650/650 651/651/651 652/652/652 
f 650/650/650 652/652/652 653/653/653 
f 654/654/654 655/655/655 656/656/656 
f 654/654/654 657/657/657 655/655/655 
f 658/658/658 659/659/659 660/660/660 
f 659/659/659 658/658/658 661/661/661 
f 662/662/662 663/663/663 664/664/664 
f 665/665/665 663/663/663 662/662/662 
f 666/666/666 667/667/667 668/668/668 
f 667/667/667 666/666/666 669/669/669 
f 670/670/670 671/671/671 672/672/672 
f 673/673/673 670/670/670 672/672/672 
f 674/674/674 675/675/675 676/676/676 
f 674/674/674 676/676/676 677/677/677 
f 676/676/676 678/678/678 677/677/677 
f 677/677/677 678/678/678 679/679/679 
f 680/680/680 674/674/674 677/677/677 
f 674/674/674 680/680/680 681/681/681 
f 680/680/680 682/682/682 681/681/681 
f 681/681/681 682/682/682 683/683/683 
f 675/675/675 674/674/674 684/684/684 
f 675/675/675 684/684/684 685/685/685 
f 686/686/686 675/675/675 685/685/685 
f 684/684/684 687/687/687 685/685/685 
f 685/685/685 687/687/687 688/688/688 
f 689/689/689 690/690/690 691/691/691 
f 692/692/692 691/691/691 690/690/690 
f 690/690/690 693/693/693 692/692/692 
f 690/690/690 694/694/694 693/693/693 
f 693/693/693 695/695/695 692/692/692 
f 695/695/695 693/693/693 696/696/696 
f 697/697/697 695/695/695 696/696/696 
f 696/696/696 698/698/698 697/697/697 
f 697/697/697 698/698/698 699/699/699 
f 697/697/697 700/700/700 695/695/695 
f 700/700/700 701/701/701 695/695/695 
f 700/700/700 702/702/702 701/701/701 
f 703/703/703 704/704/704 705/705/705 
f 706/706/706 705/705/705 704/704/704 
f 707/707/707 708/708/708 709/709/709 
f 710/710/710 709/709/709 708/708/708 
f 711/711/711 712/712/712 713/713/713 
f 713/713/713 712/712/712 714/714/714 
f 715/715/715 716/716/716 717/717/717 
f 716/716/716 715/715/715 718/718/718 
f 719/719/719 720/720/720 721/721/721 
f 720/720/720 719/719/719 722/722/722 
f 723/723/723 724/724/724 725/725/725 
f 725/725/725 724/724/724 726/726/726 
f 727/727/727 728/728/728 729/729/729 
f 730/730/730 728/728/728 727/727/727 
f 731/731/731 732/732/732 733/733/733 
f 732/732/732 731/731/731 734/734/734 
f 735/735/735 736/736/736 737/737/737 
f 738/738/738 737/737/737 736/736/736 
f 739/739/739 740/740/740 741/741/741 
f 742/742/742 741/741/741 740/740/740 
f 743/743/743 744/744/744 745/745/745 
f 746/746/746 744/744/744 743/743/743 
f 747/747/747 748/748/748 749/749/749 
f 750/750/750 749/749/749 748/748/748 
f 751/751/751 752/752/752 753/753/753 
f 751/751/751 753/753/753 754/754/754 
f 755/755/755 756/756/756 757/757/757 
f 755/755/755 758/758/758 756/756/756 
f 759/759/759 760/760/760 761/761/761 
f 762/762/762 759/759/759 761/761/761 
f 759/759/759 763/763/763 760/760/760 
f 763/763/763 759/759/759 764/764/764 
f 765/765/765 763/763/763 764/764/764 
f 765/765/765 766/766/766 763/763/763 
f 763/763/763 767/767/767 760/760/760 
f 768/768/768 767/767/767 763/763/763 
f 769/769/769 767/767/767 768/768/768 
f 769/769/769 770/770/770 767/767/767 
f 771/771/771 769/769/769 768/768/768 
f 769/769/769 771/771/771 772/772/772 
f 773/773/773 774/774/774 775/775/775 
f 776/776/776 773/773/773 775/775/775 
f 773/773/773 776/776/776 777/777/777 
f 773/773/773 778/778/778 774/774/774 
f 775/775/775 774/774/774 779/779/779 
f 779/779/779 780/780/780 781/781/781 
f 780/780/780 779/779/779 782/782/782 
f 774/774/774 782/782/782 779/779/779 
f 782/782/782 774/774/774 783/783/783 
f 782/782/782 783/783/783 784/784/784 
f 782/782/782 784/784/784 785/785/785 
f 783/783/783 786/786/786 784/784/784 
f 784/784/784 786/786/786 787/787/787 
f 788/788/788 789/789/789 790/790/790 
f 788/788/788 791/791/791 789/789/789 
f 792/792/792 793/793/793 794/794/794 
f 795/795/795 792/792/792 794/794/794 
f 792/792/792 796/796/796 793/793/793 
f 793/793/793 796/796/796 797/797/797 
f 798/798/798 799/799/799 800/800/800 
f 801/801/801 800/800/800 799/799/799 
f 802/802/802 803/803/803 804/804/804 
f 804/804/804 803/803/803 805/805/805 
f 806/806/806 807/807/807 808/808/808 
f 807/807/807 806/806/806 809/809/809 
f 810/810/810 811/811/811 812/812/812 
f 812/812/812 811/811/811 813/813/813 

